<?xml version="1.0" standalone="no"?>
<!DOCTYPE svg PUBLIC "-//W3C//DTD SVG 20010904//EN"
 "http://www.w3.org/TR/2001/REC-SVG-20010904/DTD/svg10.dtd">
<svg version="1.0" xmlns="http://www.w3.org/2000/svg"
 width="350.000000pt" height="350.000000pt" viewBox="0 0 350.000000 350.000000"
 preserveAspectRatio="xMidYMid meet">
<metadata>
Created by potrace 1.11, written by Peter Selinger 2001-2013
</metadata>
<g transform="translate(0.000000,350.000000) scale(0.100000,-0.100000)"
fill="#000000" stroke="none">
<path d="M1575 3333 c-65 -8 -234 -46 -310 -70 -161 -51 -345 -160 -499 -296
-130 -115 -271 -334 -345 -539 -144 -395 -145 -896 -3 -1308 74 -214 257 -475
421 -601 284 -219 615 -321 993 -306 236 9 420 56 744 192 88 36 187 77 221
91 34 14 68 33 75 41 10 12 14 107 18 403 l5 387 28 37 c40 52 66 66 149 81
40 7 81 16 90 20 26 11 41 70 35 139 -5 50 -10 65 -33 85 -27 23 -31 23 -129
15 -55 -4 -335 -8 -622 -9 -486 0 -524 -2 -540 -18 -14 -13 -19 -38 -21 -100
-4 -102 9 -120 95 -136 185 -36 235 -58 271 -124 15 -28 17 -67 20 -288 l3
-256 -48 -43 c-68 -60 -184 -125 -258 -145 -49 -14 -90 -16 -182 -13 -183 8
-291 57 -427 194 -123 125 -205 288 -264 524 -43 170 -54 273 -54 485 0 370
63 639 199 849 70 109 203 235 293 279 182 89 411 89 586 1 178 -91 320 -286
414 -568 38 -116 59 -142 124 -151 71 -11 117 0 149 35 33 37 33 49 3 186 -38
171 -55 309 -67 527 -7 135 -15 209 -24 223 -9 13 -33 25 -72 33 -32 7 -157
37 -278 67 -125 31 -274 61 -345 69 -113 14 -338 18 -415 8z"/>
</g>
</svg>
